# xmcd
#
# Track frame offsets:
#	150
#	12960
#	29149
#	42442
#	62504
#	75709
#	87494
#	99673
#	110403
#	124133
#	138500
#	152230
#	166523
#	177390
#	188033
#	200426
#	213095
#	224789
#	233943
#	245689
#	261638
#	272029
#	287668
#	297861
#	307322
#
# Disc length: 4277 seconds
# Revision: 0
# Processed by: cddbd v1.5.2PL0 Copyright (c) Steve Scherf et al.
# Submitted via: dBpowerAMP V12.0
#
DISCID=8510b319
DTITLE=Various Artist - 25 Mélodies à la guitare
DYEAR=1900
DGENRE=Country
TTITLE0=(P.Brunelle) - Mon enfant je te pardonne
TTITLE1=(D.P. Fred Rose/arr.:G.Richard) - Blue eyes crying in the rain
TTITLE2=(D.P./arr.:G.Richard) - I'm thinking tonight of my blue eyes
TTITLE3=(D.P./arr.:G.Richard) - Silver threads among the gold
TTITLE4=(D.P./arr.:G.Richard) - Celito lindo
TTITLE5=(D.P./Hank Williams/arr.:G.Richard) - Take theese chains from my heart
TTITLE6=(D.P./arr.:G.Richard) - There's a star spangle banner waving somewhere
TTITLE7=(P.Brunelle) - L'automne dans ma vallée
TTITLE8=(D.P./H.Williams/arr.:G.Richard) - Un larme dans ma bière - There's a tear in my beer
TTITLE9=(D.P./arr.:G.Richard) - J.C. swing
TTITLE10=(Sous réserve) - J'ai vieilli
TTITLE11=(D.P./H.Williams/arr.:G.Richard) - Ton coeur infidèle - Your cheatin' heart
TTITLE12=(D.P./H.Williams/arr.:G.Richard) - Je n'y peu rien - I can't help it
TTITLE13=(D.P./H.Williams/arr.:G.Richard) - Let's turn back the years
TTITLE14=(D.P./H.Williams/arr.:G.Richard) - Yow win again
TTITLE15=(G.Richard) - Ai-je trop attendu
TTITLE16=(G.Richard) - Je ne pourrais jamais t'oublier
TTITLE17=(G.Richard) - Oublie celui qui me remplace
TTITLE18=(G.Richard) - Reviens, si tu m'aimes encore
TTITLE19=(G.Richard) - Tu blesses toujours celui qui t'aime
TTITLE20=(G.Richard) - Laisse-moi t'oublier
TTITLE21=(G.Richard) - Ne me dis pas adieu
TTITLE22=(G.Richard) - Recommençons à zéro
TTITLE23=(G.Richard) - Refaire ma vie
TTITLE24=(G.Richard) - Tu as causé ton malheur
EXTD=
EXTT0=
EXTT1=
EXTT2=
EXTT3=
EXTT4=
EXTT5=
EXTT6=
EXTT7=
EXTT8=
EXTT9=
EXTT10=
EXTT11=
EXTT12=
EXTT13=
EXTT14=
EXTT15=
EXTT16=
EXTT17=
EXTT18=
EXTT19=
EXTT20=
EXTT21=
EXTT22=
EXTT23=
EXTT24=
PLAYORDER=
